<?xml version="1.0" encoding="utf-8"?>
<!-- Generator: Adobe Illustrator 26.3.1, SVG Export Plug-In . SVG Version: 6.00 Build 0)  -->
<svg version="1.1" id="Layer_1" xmlns="http://www.w3.org/2000/svg" xmlns:xlink="http://www.w3.org/1999/xlink" x="0px" y="0px"
	 viewBox="0 0 32 32" style="enable-background:new 0 0 32 32;" xml:space="preserve">
<style type="text/css">
	.st0{fill:none;stroke:#000000;stroke-width:1.5;stroke-miterlimit:10;}
</style>
<g id="Line">
	<g>
		<g>
			<path class="st0" d="M1.5,23.6c0,3.8,3,6.8,6.8,6.8h15.2c3.8,0,6.8-3,6.8-6.8V8.4c0-3.8-3-6.8-6.8-6.8H8.4c-3.8,0-6.8,3-6.8,6.8
				C1.5,8.4,1.5,23.6,1.5,23.6z"/>
		</g>
	</g>
	<path d="M23.7,22.5v-5.7c0-3-1.7-4.5-3.8-4.5c-1.8,0-2.5,1-2.9,1.7v-1.4h-3.3c0,1,0,10,0,10H17V17c0-0.3,0-0.6,0.1-0.8
		c0.2-0.6,0.8-1.2,1.7-1.2c1.2,0,1.7,0.9,1.7,2.2v5.3L23.7,22.5L23.7,22.5z M10.2,11.2c1.2,0,1.9-0.8,1.9-1.8s-0.7-1.8-1.9-1.8
		S8.4,8.5,8.4,9.5S9.1,11.2,10.2,11.2L10.2,11.2z M11.9,22.5v-9.9H8.6v10L11.9,22.5C11.9,22.5,11.9,22.5,11.9,22.5z"/>
</g>
</svg>
