<?xml version="1.0" encoding="utf-8"?>
<!-- Generator: Adobe Illustrator 26.3.1, SVG Export Plug-In . SVG Version: 6.00 Build 0)  -->
<svg version="1.1" id="Layer_1" xmlns="http://www.w3.org/2000/svg" xmlns:xlink="http://www.w3.org/1999/xlink" x="0px" y="0px"
	 viewBox="0 0 96 96" style="enable-background:new 0 0 96 96;" xml:space="preserve">
<style type="text/css">
	.st0{fill:#A38C7D;}
	.st1{fill:#FFFFFF;}
	.st2{font-family:'MyriadPro-Regular';}
	.st3{font-size:9.2402px;}
</style>
<path class="st0" d="M49.3,33c-5.1,0-9.2-5.3-9.2-12.1c0-0.5-0.2-6.7,3.1-9.2c1.6-1.1,3.7-1.3,6.2-0.5c2.5-0.9,4.6-0.8,6.2,0.5
	c3.4,2.6,3.2,9,3.1,9.2C58.6,27.6,54.4,33,49.3,33z M46.4,12.2c-0.8,0-1.7,0.2-2.3,0.7c-2.8,2-2.5,7.8-2.5,7.9l0,0
	c0,6,3.4,10.7,7.7,10.7s7.9-4.8,7.9-10.7c0-0.1,0.3-5.9-2.5-8c-1.2-0.9-2.9-0.9-4.9-0.2c-0.1,0-0.2,0.1-0.2,0.1h-0.2
	c-0.1,0-0.2,0-0.2-0.1C48.2,12.4,47.3,12.2,46.4,12.2z"/>
<path class="st0" d="M58.4,24.3c-0.4,0-0.8-0.2-1.1-0.4c-0.4-0.2-0.5-0.7-0.2-1.1c0.2-0.4,0.7-0.5,1.1-0.2l0,0
	c0.1,0.1,0.2,0.1,0.3,0.1c0.5,0,1.1-0.8,1.1-1.9s-0.5-1.9-1.1-1.9c-0.1,0-0.2,0.1-0.2,0.1c-0.3,0.2-0.8,0.2-1-0.2
	c-0.2-0.3-0.2-0.8,0.1-1c1-1.1,1.4-2.5,1.4-3.9c-0.2-1.5-1.1-2.9-2.8-4.3c-0.2-0.1-0.2-0.2-0.2-0.4c-0.5-1.1-1.4-2-2.6-2.3
	c-3.4-0.9-8.7,0.5-10.5,2c-4.7,3.8-1.1,8.9-1,9.1c0.2,0.3,0.2,0.8-0.2,1.1c-0.2,0.2-0.6,0.2-0.8,0c-0.2-0.1-0.3-0.2-0.5-0.2
	c-0.5,0-1.1,0.8-1.1,1.9s0.5,1.9,1.1,1.9c0.2,0,0.2-0.1,0.3-0.1c0.4-0.2,0.8-0.2,1.1,0.2l0,0c0.2,0.4,0.2,0.8-0.2,1.1
	c-0.3,0.2-0.8,0.4-1.1,0.4c-1.4,0-2.6-1.5-2.6-3.4c0-1.7,0.8-2.9,2-3.3c-1-2.1-2.2-6.4,2-9.8c2.1-1.7,7.9-3.3,11.9-2.2
	c1.6,0.4,2.9,1.5,3.5,3c2,1.6,3.1,3.3,3.2,5.3c0.1,1.3-0.2,2.6-0.9,3.7c1.1,0.7,1.7,1.9,1.7,3.2C61,22.8,59.9,24.3,58.4,24.3z"/>
<path class="st0" d="M49.3,39.2c-0.1,0-0.2,0-0.2,0c-2.9-0.9-5.1-5.4-5.3-5.9c-0.1-0.2-0.1-0.4-0.1-0.5l0.6-2.1
	c0.2-0.4,0.5-0.6,1-0.5c0.4,0.2,0.6,0.5,0.5,1l-0.5,1.8c0.7,1.4,2.4,4.1,4.1,4.8c1.7-0.8,3.4-3.5,4.1-4.8L53,31.1
	c-0.2-0.4,0.1-0.8,0.5-0.9c0.4-0.2,0.8,0.1,0.9,0.5l0.6,2c0.1,0.2,0.1,0.4-0.1,0.5c-0.2,0.5-2.6,5-5.3,5.9
	C49.5,39.2,49.4,39.2,49.3,39.2z"/>
<path class="st0" d="M26.4,48.7L26.4,48.7c-0.5,0-0.8-0.4-0.8-0.8l0,0c0.2-2.4,0.7-4.7,1.3-7.1c0.4-1.6,1.6-2.8,3.1-3.3
	c4.5-1.6,14-5.3,14.1-5.3c0.4-0.2,0.8,0.1,1,0.5c0.2,0.4-0.1,0.8-0.5,1c-0.1,0-9.6,3.8-14.1,5.3c-1.1,0.4-1.9,1.2-2.1,2.3
	c-0.6,2.3-1.1,4.5-1.2,6.8C27.1,48.4,26.8,48.7,26.4,48.7z"/>
<path class="st0" d="M62.3,74.5H36.2c-0.4,0-0.7-0.2-0.8-0.6l-0.8-3.2l-0.8,3.2c-0.1,0.4-0.4,0.6-0.8,0.6h-7.6
	c-0.4,0-0.7-0.2-0.8-0.5l-1.9-7c-0.1-0.4,0.2-0.8,0.5-0.9s0.8,0.2,0.9,0.5l1.7,6.4h6.5l1.4-5.7c0.1-0.4,0.4-0.6,0.8-0.6
	c0.4,0,0.7,0.2,0.8,0.6l1.3,5.7h25.1l1.9-2.3c0.2-0.2,0.5-0.3,0.7-0.3c0.2,0,0.5,0.2,0.6,0.5l0.9,2h6.9c-0.3-10.7-1.6-21.4-3.8-31.8
	c-0.3-1.2-1.1-2.1-2.3-2.5c-4.4-1.4-8.7-3-12.9-5c-0.4-0.2-0.5-0.6-0.4-1c0.2-0.4,0.6-0.5,1-0.4l0,0c4.1,1.9,8.3,3.5,12.7,4.9
	c1.7,0.5,3,1.9,3.4,3.6c2.3,10.8,3.5,21.8,3.8,32.9c0,0.2-0.1,0.4-0.2,0.5c-0.2,0.2-0.3,0.2-0.5,0.2h-8c-0.3,0-0.5-0.2-0.7-0.5
	l-0.6-1.3l-1.4,1.7C62.7,74.4,62.5,74.5,62.3,74.5z"/>
<path class="st0" d="M49.3,66.3c-0.2,0-0.4-0.1-0.5-0.2c-1.2-1.2-4.9-23.2-6.5-32.6c-0.1-0.5,0.2-0.8,0.6-0.9
	c0.4-0.1,0.8,0.2,0.9,0.6c1.6,9.8,4.2,24.7,5.5,30c1.3-5.3,3.9-20.2,5.5-29.9c0.1-0.5,0.5-0.7,0.9-0.6c0.5,0.1,0.7,0.5,0.6,0.9
	c-1.5,9.4-5.3,31.3-6.5,32.5C49.8,66.2,49.5,66.3,49.3,66.3z"/>
<path class="st0" d="M52,54.4c-0.4,0-0.7-0.2-0.8-0.6l-2-10.5l-2,10.5c-0.1,0.5-0.5,0.7-0.9,0.6c-0.5-0.1-0.7-0.5-0.6-0.9l2-10.8
	l-1-1.3c-0.2-0.3-0.2-0.6,0-0.9l1.9-2.6c0.2-0.2,0.4-0.3,0.6-0.3l0,0c0.2,0,0.5,0.2,0.6,0.3l1.9,2.6c0.2,0.3,0.2,0.6,0,0.9l-1.1,1.3
	l2,10.8c0.1,0.4-0.2,0.8-0.6,0.9C52.1,54.4,52,54.4,52,54.4z M48.3,41l0.9,1.1l0.1,0.1v-0.1l0.9-1.1l-0.9-1.3L48.3,41z"/>
<path class="st0" d="M34.7,68.3L34.7,68.3c-0.5-0.1-0.8-0.4-0.8-0.8c0-0.1,0.9-9.6-2-16.9c-0.2-0.4,0-0.8,0.5-1l0,0
	c0.4-0.2,0.8,0,1,0.5l0,0c3.1,7.7,2.2,17.2,2.1,17.6C35.4,68,35.1,68.3,34.7,68.3z"/>
<path class="st0" d="M64.4,71.9L64.4,71.9c-0.5,0-0.8-0.3-0.8-0.8c0-0.7,0.6-16.7,1.5-21.8c0.1-0.5,0.5-0.7,0.9-0.6
	c0.5,0.1,0.7,0.5,0.6,0.9l0,0c-1,5-1.5,21.4-1.5,21.6C65.1,71.6,64.7,71.9,64.4,71.9z"/>
<path class="st0" d="M24.1,67.6c-0.3,0-0.5,0-0.5,0c-0.3,0-0.6-0.3-0.7-0.6c0,0-0.6-2.8-2-4.1c-2.1-1.8-0.9-9.6,0.5-11.4
	c0.4-0.5,0.9-0.8,1.5-0.7c0.7,0.1,1.3,0.5,1.8,0.9l-0.4-2.9c-0.1-0.9,0.5-1.7,1.4-1.8c0.2,0,0.4,0,0.6,0.1c0.9,0.1,1.6,0.8,1.7,1.7
	c0.2,1.1,0.4,2.3,0.7,3.3c0.4,1.4,0.6,2.9,0.8,4.3c0.2,1.4,0.2,2.9-0.1,4.3c-0.2,1.4-0.3,2.6-0.2,4c0,0.2,0,0.3-0.1,0.5
	C27.9,67.3,25.3,67.6,24.1,67.6z M22.8,52.4c-0.1,0-0.1,0-0.2,0.2c-1.2,1.6-2,8.2-0.8,9.3c1.1,1.2,2,2.6,2.4,4.3
	c0.9,0,2.6-0.2,3.5-1.5c-0.1-1.4,0-2.8,0.2-4.1c0.2-1.3,0.2-2.6,0.1-3.8c-0.2-1.4-0.5-2.8-0.8-4.1c-0.3-1.1-0.5-2.3-0.7-3.5
	c0-0.2,0-0.2-0.5-0.3c-0.1,0-0.1,0-0.2,0c0,0-0.1,0.1-0.1,0.2l0.5,5.3c0,0.3-0.2,0.7-0.5,0.8c-0.3,0.1-0.7,0-0.9-0.3
	C24.3,53.5,23.2,52.4,22.8,52.4L22.8,52.4z"/>
<path class="st0" d="M30.1,68C30,68,29.8,68,29.8,68c-1.1-0.7-1.9-1.8-2-3.2C27.7,64.4,28,64,28.4,64s0.8,0.2,0.8,0.7
	c0.1,0.5,0.2,0.9,0.5,1.2s0.5,0.5,0.8,0.8c0.4,0.2,0.5,0.7,0.3,1.1C30.7,67.9,30.4,68,30.1,68z"/>
<path class="st0" d="M25.7,54.9c-0.4,0-0.7-0.3-0.8-0.7l-4-30.6c-0.1-0.5,0.2-0.8,0.7-0.8c0.5-0.1,0.8,0.2,0.8,0.7l4.1,30.6
	c0.1,0.4-0.2,0.8-0.6,0.8l0,0C25.9,54.9,25.7,54.9,25.7,54.9z"/>
<path class="st0" d="M21.6,24.3c-0.5,0.1-0.8-0.2-0.8-0.7c-0.1-0.5,0.2-0.8,0.7-0.8c0.4-0.1,0.8,0.2,0.9,0.6l0,0
	c0.1,0.4-0.2,0.8-0.6,0.9H21.6L21.6,24.3z"/>
<text transform="matrix(1 0 0 1 18.9205 82.4506)" class="st1 st2 st3">tutoring school</text>
</svg>
